<svg width="81" height="78" viewBox="0 0 81 78" fill="none" xmlns="http://www.w3.org/2000/svg">
<rect width="80.605" height="78" rx="15" fill="#314781"/>
<path d="M26.9947 47.5V51.2151C26.9947 51.4942 26.9469 51.7649 26.8512 52.0272C26.7556 52.2895 26.6121 52.5246 26.4208 52.7326L20.204 59.5349C19.8533 59.9186 19.407 60.1105 18.865 60.1105C18.3231 60.1105 17.8767 59.9186 17.526 59.5349C17.1753 59.1512 17 58.6628 17 58.0698C17 57.4767 17.1753 56.9884 17.526 56.6046L23.169 50.4302L21.0648 44.2558C20.8417 43.6279 20.7938 42.9044 20.9214 42.0854C21.0489 41.2663 21.4155 40.5247 22.0213 39.8605L28.3337 32.9535C28.7163 32.5349 29.1307 32.2209 29.577 32.0116C30.0234 31.8023 30.5175 31.6977 31.0595 31.6977C31.6015 31.6977 32.0956 31.8023 32.542 32.0116C32.9883 32.2209 33.4028 32.5349 33.7853 32.9535L37.611 37.0349C38.4718 37.9767 39.5239 38.7184 40.7673 39.2598C42.0106 39.8012 43.3496 40.0712 44.7843 40.0698V44.2558C42.8714 44.2558 41.0861 43.9244 39.4283 43.2616C37.7705 42.5988 36.3358 41.6047 35.1243 40.2791L33.7853 38.814L29.2901 43.7326L32.7811 47.6047C32.9405 47.7791 33.068 47.9974 33.1637 48.2598C33.2593 48.5221 33.3071 48.7921 33.3071 49.0698V58.907C33.3071 59.5 33.1241 59.9974 32.7581 60.3993C32.3921 60.8012 31.9375 61.0014 31.3943 61C30.851 60.9986 30.397 60.7977 30.0323 60.3972C29.6676 59.9967 29.4839 59.5 29.4814 58.907V50.0116L26.9947 47.5ZM48.61 49.4884V58.907C48.61 59.5 48.4263 59.9974 48.0591 60.3993C47.6918 60.8012 47.2378 61.0014 46.6971 61C46.1564 60.9986 45.7024 60.7977 45.3352 60.3972C44.9679 59.9967 44.7843 59.5 44.7843 58.907V47.2384C44.7843 46.9593 44.8321 46.6893 44.9277 46.4284C45.0234 46.1674 45.1668 45.9316 45.3581 45.7209L48.8013 42.1628L47.6536 34.8372C47.1753 35.4651 46.6493 36.0233 46.0754 36.5116C45.5016 37 44.8799 37.4535 44.2104 37.8721C43.1583 37.8023 42.1617 37.5581 41.2206 37.1395C40.2795 36.7209 39.4907 36.1628 38.8544 35.4651C40.289 35.1861 41.5566 34.6537 42.6572 33.8681C43.7577 33.0826 44.658 32.08 45.3581 30.8605L47.271 27.5116C47.813 26.5698 48.5622 25.9328 49.5186 25.6007C50.475 25.2686 51.4155 25.3126 52.3401 25.7326L60.8523 29.7093C61.203 29.8837 61.4822 30.137 61.6901 30.4691C61.898 30.8012 62.0013 31.1758 62 31.593V37.9767C62 38.5698 61.8164 39.0672 61.4491 39.4691C61.0818 39.8709 60.6278 40.0712 60.0871 40.0698C59.5464 40.0684 59.0924 39.8674 58.7252 39.467C58.3579 39.0665 58.1743 38.5698 58.1743 37.9767V32.9535L54.7311 31.4884L59.6089 58.436C59.7364 59.0988 59.6006 59.6919 59.2015 60.2151C58.8023 60.7384 58.2686 61 57.6004 61C57.1541 61 56.7473 60.8514 56.38 60.5542C56.0127 60.257 55.7819 59.8649 55.6876 59.3779L52.627 45.3023L48.61 49.4884ZM38.0893 32.7442C37.0372 32.7442 36.1369 32.3347 35.3883 31.5156C34.6397 30.6965 34.2648 29.7107 34.2635 28.5581C34.2623 27.4056 34.6372 26.4205 35.3883 25.6028C36.1394 24.7851 37.0397 24.3749 38.0893 24.3721C39.1388 24.3693 40.0397 24.7795 40.7921 25.6028C41.5445 26.4261 41.9188 27.4112 41.915 28.5581C41.9112 29.7051 41.5369 30.6909 40.7921 31.5156C40.0474 32.3402 39.1464 32.7498 38.0893 32.7442ZM47.6536 24.3721C46.6015 24.3721 45.7012 23.9626 44.9526 23.1435C44.204 22.3244 43.8291 21.3386 43.8278 20.1861C43.8266 19.0335 44.2015 18.0484 44.9526 17.2307C45.7037 16.413 46.604 16.0028 47.6536 16C48.7031 15.9972 49.604 16.4075 50.3564 17.2307C51.1088 18.054 51.4831 19.0391 51.4793 20.1861C51.4754 21.333 51.1012 22.3188 50.3564 23.1435C49.6117 23.9682 48.7107 24.3777 47.6536 24.3721Z" fill="#E1F1FB"/>
</svg>
