<svg width="81" height="78" viewBox="0 0 81 78" fill="none" xmlns="http://www.w3.org/2000/svg">
<rect width="80.605" height="78" rx="15" fill="#314781"/>
<path d="M21.5 45.25C20.2625 45.25 19.2035 44.8098 18.323 43.9293C17.4425 43.0488 17.0015 41.989 17 40.75V20.5C17 19.2625 17.441 18.2035 18.323 17.323C19.205 16.4425 20.264 16.0015 21.5 16H41.75C42.9875 16 44.0472 16.441 44.9292 17.323C45.8112 18.205 46.2515 19.264 46.25 20.5V40.75C46.25 41.9875 45.8097 43.0473 44.9292 43.9293C44.0487 44.8113 42.989 45.2515 41.75 45.25H21.5ZM21.5 40.75H41.75V20.5H21.5V40.75ZM30.5 36.8125L28.25 33.7188C28.1375 33.5687 27.9875 33.4937 27.8 33.4937C27.6125 33.4937 27.4625 33.5687 27.35 33.7188L24.425 37.6C24.275 37.7875 24.2562 37.9847 24.3687 38.1917C24.4812 38.3987 24.65 38.5015 24.875 38.5H38.375C38.6 38.5 38.7687 38.3965 38.8812 38.1895C38.9937 37.9825 38.975 37.786 38.825 37.6L34.775 32.3125C34.6625 32.1625 34.5125 32.0875 34.325 32.0875C34.1375 32.0875 33.9875 32.1625 33.875 32.3125L30.5 36.8125ZM50.75 61C48.875 61 47.2812 60.3437 45.9687 59.0312C44.6562 57.7188 44 56.125 44 54.25C44 52.375 44.6562 50.7812 45.9687 49.4688C47.2812 48.1563 48.875 47.5 50.75 47.5C51.1625 47.5 51.5472 47.5375 51.9042 47.6125C52.2612 47.6875 52.6265 47.7812 53 47.8937V38.5C53 37.8625 53.216 37.3285 53.648 36.898C54.08 36.4675 54.614 36.2515 55.25 36.25H59.75C60.3875 36.25 60.9222 36.466 61.3542 36.898C61.7862 37.33 62.0015 37.864 62 38.5C61.9985 39.136 61.7825 39.6708 61.352 40.1043C60.9215 40.5378 60.3875 40.753 59.75 40.75H57.5V54.25C57.5 56.125 56.8437 57.7188 55.5312 59.0312C54.2187 60.3437 52.625 61 50.75 61Z" fill="#E1F1FB"/>
</svg>
