<svg width="81" height="78" viewBox="0 0 81 78" fill="none" xmlns="http://www.w3.org/2000/svg">
<rect width="80.605" height="78" rx="15" fill="#314781"/>
<path d="M19.5 44C18.7917 44 18.1983 43.76 17.72 43.28C17.2417 42.8 17.0017 42.2067 17 41.5C16.9983 40.7933 17.2383 40.2 17.72 39.72C18.2017 39.24 18.795 39 19.5 39H32C32.7083 39 33.3025 39.24 33.7825 39.72C34.2625 40.2 34.5017 40.7933 34.5 41.5C34.4983 42.2067 34.2583 42.8008 33.78 43.2825C33.3017 43.7642 32.7083 44.0033 32 44H19.5ZM19.5 34C18.7917 34 18.1983 33.76 17.72 33.28C17.2417 32.8 17.0017 32.2067 17 31.5C16.9983 30.7933 17.2383 30.2 17.72 29.72C18.2017 29.24 18.795 29 19.5 29H42C42.7083 29 43.3025 29.24 43.7825 29.72C44.2625 30.2 44.5017 30.7933 44.5 31.5C44.4983 32.2067 44.2583 32.8008 43.78 33.2825C43.3017 33.7642 42.7083 34.0033 42 34H19.5ZM19.5 24C18.7917 24 18.1983 23.76 17.72 23.28C17.2417 22.8 17.0017 22.2067 17 21.5C16.9983 20.7933 17.2383 20.2 17.72 19.72C18.2017 19.24 18.795 19 19.5 19H42C42.7083 19 43.3025 19.24 43.7825 19.72C44.2625 20.2 44.5017 20.7933 44.5 21.5C44.4983 22.2067 44.2583 22.8008 43.78 23.2825C43.3017 23.7642 42.7083 24.0033 42 24H19.5ZM39.5 56.5V52.375C39.5 52.0417 39.5625 51.7192 39.6875 51.4075C39.8125 51.0958 40 50.8142 40.25 50.5625L53.3125 37.5625C53.6875 37.1875 54.1042 36.9167 54.5625 36.75C55.0208 36.5833 55.4792 36.5 55.9375 36.5C56.4375 36.5 56.9166 36.5942 57.375 36.7825C57.8333 36.9708 58.25 37.2517 58.625 37.625L60.9375 39.9375C61.2708 40.3125 61.5316 40.7292 61.72 41.1875C61.9083 41.6458 62.0016 42.1042 62 42.5625C61.9983 43.0208 61.915 43.49 61.75 43.97C61.585 44.45 61.3141 44.8767 60.9375 45.25L47.9375 58.25C47.6875 58.5 47.4067 58.6875 47.095 58.8125C46.7833 58.9375 46.46 59 46.125 59H42C41.2917 59 40.6983 58.7608 40.22 58.2825C39.7417 57.8042 39.5017 57.21 39.5 56.5ZM43.25 55.25H45.625L53.1875 47.625L52.0625 46.4375L50.875 45.3125L43.25 52.875V55.25ZM52.0625 46.4375L50.875 45.3125L53.1875 47.625L52.0625 46.4375Z" fill="#E1F1FB"/>
</svg>
